nRows=5
nColumns=145
DataType=double
version=3
OpenSimVersion=4.2-2021-03-12-fcedec9
endheader
time	ground_force_1_vx	ground_force_1_vy	ground_force_1_vz	ground_force_1_px	ground_force_1_py	ground_force_1_pz	ground_force_2_vx	ground_force_2_vy	ground_force_2_vz	ground_force_2_px	ground_force_2_py	ground_force_2_pz	ground_force_3_vx	ground_force_3_vy	ground_force_3_vz	ground_force_3_px	ground_force_3_py	ground_force_3_pz	ground_force_4_vx	ground_force_4_vy	ground_force_4_vz	ground_force_4_px	ground_force_4_py	ground_force_4_pz	ground_force_5_vx	ground_force_5_vy	ground_force_5_vz	ground_force_5_px	ground_force_5_py	ground_force_5_pz	ground_force_6_vx	ground_force_6_vy	ground_force_6_vz	ground_force_6_px	ground_force_6_py	ground_force_6_pz	ground_force_7_vx	ground_force_7_vy	ground_force_7_vz	ground_force_7_px	ground_force_7_py	ground_force_7_pz	ground_force_8_vx	ground_force_8_vy	ground_force_8_vz	ground_force_8_px	ground_force_8_py	ground_force_8_pz	ground_force_9_vx	ground_force_9_vy	ground_force_9_vz	ground_force_9_px	ground_force_9_py	ground_force_9_pz	ground_force_10_vx	ground_force_10_vy	ground_force_10_vz	ground_force_10_px	ground_force_10_py	ground_force_10_pz	ground_force_11_vx	ground_force_11_vy	ground_force_11_vz	ground_force_11_px	ground_force_11_py	ground_force_11_pz	ground_force_12_vx	ground_force_12_vy	ground_force_12_vz	ground_force_12_px	ground_force_12_py	ground_force_12_pz	ground_force_13_vx	ground_force_13_vy	ground_force_13_vz	ground_force_13_px	ground_force_13_py	ground_force_13_pz	ground_force_14_vx	ground_force_14_vy	ground_force_14_vz	ground_force_14_px	ground_force_14_py	ground_force_14_pz	ground_force_15_vx	ground_force_15_vy	ground_force_15_vz	ground_force_15_px	ground_force_15_py	ground_force_15_pz	ground_force_16_vx	ground_force_16_vy	ground_force_16_vz	ground_force_16_px	ground_force_16_py	ground_force_16_pz	ground_force_17_vx	ground_force_17_vy	ground_force_17_vz	ground_force_17_px	ground_force_17_py	ground_force_17_pz	ground_force_18_vx	ground_force_18_vy	ground_force_18_vz	ground_force_18_px	ground_force_18_py	ground_force_18_pz	ground_force_19_vx	ground_force_19_vy	ground_force_19_vz	ground_force_19_px	ground_force_19_py	ground_force_19_pz	ground_force_20_vx	ground_force_20_vy	ground_force_20_vz	ground_force_20_px	ground_force_20_py	ground_force_20_pz	ground_force_21_vx	ground_force_21_vy	ground_force_21_vz	ground_force_21_px	ground_force_21_py	ground_force_21_pz	ground_force_22_vx	ground_force_22_vy	ground_force_22_vz	ground_force_22_px	ground_force_22_py	ground_force_22_pz	ground_force_23_vx	ground_force_23_vy	ground_force_23_vz	ground_force_23_px	ground_force_23_py	ground_force_23_pz	ground_force_24_vx	ground_force_24_vy	ground_force_24_vz	ground_force_24_px	ground_force_24_py	ground_force_24_pz
1.500000000000	-0.585939801435	1.683946863758	-1.816007971518	0.971738177890	0.889856908321	-0.245500129471	-1.585760182359	3.335350784607	-1.381365750384	1.044880977116	0.786368347351	-0.254694023120	-1.348328781860	1.525757798757	-0.466041289375	1.049341052984	0.767677637612	-0.250137170628	-1.164000487515	1.463209082405	0.016798844201	1.100270416812	0.666094365582	-0.309544111416	-1.065926050086	1.239228012540	-0.936358218931	1.001783951550	0.843539126287	-0.234319441023	-0.209873309646	0.897101676645	-1.859906226114	0.937485207453	0.919161164857	-0.243169681776	-9.318727304422	29.556249465213	-0.722021608322	1.105603312896	0.560196002270	-0.234920069430	0.186089823729	28.928852899029	3.472669954712	1.076215167779	0.164492119745	-0.280541675634	-1.266339289087	52.069519407662	-0.872515716651	1.076215167779	0.164492119745	-0.280541675634	-24.972911336035	73.323254547730	-5.868435757414	0.886667533542	0.944342891628	-0.235346679303	-59.653650786852	115.196798055451	-10.312965713061	0.900153288345	0.919117869588	-0.240961990417	-3.018264344313	2.634844188896	-1.195581107722	0.946260803577	0.876098694316	-0.257715167154	15.109764568082	29.174025445691	-3.690729666413	0.896264895466	0.976087791829	-0.206149895536	10.405279861195	43.740396418942	-21.514765132954	0.889340236813	0.979739450981	-0.209441460491	-2.308592416368	79.895720562534	-59.726491270900	0.883844885213	0.978094877816	-0.210692042396	1.591826334622	3.440981348845	-1.461569313025	0.909697176859	0.985166144559	-0.204861957149	3.316742346951	12.010226189312	-5.805933390383	0.907370838740	0.983879023113	-0.204982232125	1.979786153042	16.632534706135	-11.136987460874	0.902506053901	0.983850837901	-0.206281763686	1.625686991363	5.316721901629	-1.448613460105	0.941007940207	0.944153159911	-0.251336476318	-18.717942536255	101.312537408617	-89.905844021535	0.899208089533	0.988005779984	-0.218856238413	3.529703200329	7.502574385727	-2.506666716912	0.925580503381	0.948056324359	-0.262167377985	0.708185462647	3.189586676038	0.499938449909	1.170472667374	0.539055067968	-0.274583048004	2.010322501102	9.595626187296	1.964926406937	1.170817225210	0.538651547315	-0.269564900926	1.360577817267	5.440881773906	0.809492286068	1.169174214791	0.538975649493	-0.282285756239
1.510000000000	-0.526356315702	1.700789851267	-1.762012088466	0.969237724700	0.887121054963	-0.247333572601	-1.459788287392	3.333389118924	-1.294129787753	1.039305541780	0.782389244406	-0.258263509840	-1.331867060958	1.587234392537	-0.448152749134	1.043369828228	0.763234394180	-0.253754890797	-1.154916828377	1.533451793444	0.042123696741	1.091130034480	0.660056417258	-0.314335406186	-1.043601727214	1.285106832644	-0.928044923722	0.998395655379	0.839754158911	-0.236518460288	-0.169416510280	0.916576557222	-1.854988441209	0.935705693338	0.917306184188	-0.244337508986	-16.184673437928	54.263107604715	-0.747644854065	1.097999552272	0.552041139474	-0.240342530033	-3.577184295360	65.503981609800	7.903946183606	1.093107574266	0.155252698730	-0.285233880616	-7.645395521893	88.147470774524	-1.584247496459	1.093107574266	0.155252698730	-0.285233880616	-34.574320906201	104.126780768514	-9.876983002289	0.885805837868	0.943364122329	-0.234859396115	-79.130715111763	155.798188795426	-15.071990581712	0.898548436147	0.917837226952	-0.240834581462	-1.705573447222	1.530948937520	-0.680962133203	0.943231721846	0.873762840427	-0.258669204092	14.584935249423	29.029611956785	-3.703097545560	0.896772248819	0.974747376586	-0.205753908488	14.587985666021	64.886687017426	-32.170430472317	0.889874736300	0.978581370489	-0.208891538752	-5.648385281116	133.046915235373	-100.953384756350	0.884316300733	0.977077519816	-0.210035956683	1.850684013781	4.216744689275	-1.777089549020	0.910447860551	0.983487189851	-0.204707598381	4.412263142463	17.232390838838	-8.308807966345	0.908088497999	0.982258204679	-0.204785061427	2.589176628156	25.637445161648	-17.223539809615	0.903199225680	0.982354912609	-0.205985632948	1.679230352645	5.324396669359	-1.355680083651	0.939790671078	0.941900203230	-0.251949865022	-37.118983997895	182.606537971843	-163.809237311471	0.899751341038	0.986639504656	-0.218476104910	3.625248457472	7.446874207631	-2.388222414864	0.924248518932	0.946224748883	-0.262451709727	0.672666751376	3.755301017352	0.513242465498	1.163934562833	0.534902626483	-0.280179320538	1.907502844655	11.278472080339	2.077700708944	1.164319054830	0.534530192641	-0.275161670883	1.292807243269	6.339698887549	0.814799846424	1.162619740735	0.534729012365	-0.287877703585
1.520000000000	-0.461282537323	1.691285314518	-1.710437144416	0.967539703643	0.883566814948	-0.248898316283	-1.371382589907	3.288892657362	-1.241261836996	1.036939007738	0.778539015063	-0.259963999533	-1.327522594695	1.623320101828	-0.454858242262	1.040854191182	0.759132127189	-0.255587560813	-1.178776666939	1.587399741578	0.045449308649	1.088861616469	0.656638494478	-0.316745732626	-1.016121780140	1.307817100358	-0.931395849424	0.996093754642	0.835810603103	-0.238170331059	-0.112663014951	0.915600975792	-1.805660619174	0.934229394573	0.913919072252	-0.246129711685	-16.485916005302	56.148870480590	-0.269793533567	1.094753795205	0.546611307985	-0.244279297538	-6.361455532165	72.324459593144	9.590876407268	1.103037938656	0.150251247997	-0.294158812190	-9.749651176853	83.736899365164	-0.677242387433	1.103037938656	0.150251247997	-0.294158812190	-43.463427942643	131.715797782855	-12.698837555647	0.884304442873	0.940292817000	-0.237242552080	-98.966227341458	196.462295454785	-19.193691813496	0.896965219913	0.914753081177	-0.243335634819	-1.764385737034	1.612120140981	-0.726504311433	0.941653112402	0.870582156931	-0.260918099063	16.816610351301	33.819371879086	-3.806319311878	0.894927767592	0.971160731010	-0.207466436087	19.479419160704	84.731321972922	-41.172051979170	0.888124830225	0.975095508870	-0.210684739716	-5.130030680493	172.065913542088	-129.687983488855	0.882578973157	0.973653427246	-0.211961977036	2.014271221685	4.602327828317	-1.853766282611	0.908647293146	0.979773549075	-0.206018872421	5.603184396549	21.608258640285	-10.106480938915	0.906280456206	0.978564939836	-0.206161502499	3.719543346050	33.736472337950	-22.272118803354	0.901417212792	0.978718598588	-0.207458021182	1.724842852223	5.340011336146	-1.238806015310	0.938608924352	0.938640452769	-0.253270102955	-42.788207632507	228.511070493297	-204.113680798801	0.898254657680	0.983211719703	-0.219950724458	3.682266612496	7.401969676146	-2.174014104784	0.923315243020	0.943242485138	-0.264015964485	0.673523176220	4.370974301016	0.638321777199	1.162269346881	0.531942538756	-0.282418537359	1.882681867070	13.082511317818	2.528730867525	1.162522927908	0.531516425623	-0.277396837111	1.300558990314	7.318009828055	1.013688093535	1.161178211236	0.531830305307	-0.290152929850
1.530000000000	-0.426886148626	1.713537039309	-1.677869652142	0.964701001810	0.879827152001	-0.249796090883	-1.282074782181	3.349446830795	-1.184718969656	1.030274569228	0.773486596560	-0.262918399933	-1.296382673040	1.672358352388	-0.423275841379	1.033693130229	0.753658010591	-0.258494880169	-1.156938773165	1.666719984133	0.079460660005	1.077012232391	0.648500576782	-0.320608845067	-0.989408186756	1.335412289398	-0.907052957510	0.992425528044	0.830954783065	-0.239412901617	-0.094834024683	0.895833801415	-1.745244483050	0.932501643621	0.910928301813	-0.246026497164	-14.713866265776	54.200981970101	0.072484198415	1.084960156963	0.537717258739	-0.247856209806	-10.006704842167	80.525797132117	10.326642606329	1.107825913406	0.141541203949	-0.294499038916	-16.133438792278	102.350431291291	-1.376344376149	1.107825913406	0.141541203949	-0.294499038916	-49.038115044907	152.325789202246	-18.294912283720	0.883698009345	0.938506392950	-0.234390759738	-114.897188152928	231.995241789294	-25.622391517434	0.895372683209	0.912586730574	-0.240838405113	-2.435920503911	2.274490045413	-0.996033637728	0.938015537725	0.867080949828	-0.260022570725	18.283157013256	38.471976550407	-4.969221493188	0.896461543496	0.969254905560	-0.205340434520	20.905764955312	102.283782125274	-51.501020991421	0.889634679204	0.973356747380	-0.208288099613	-11.398355483619	183.166869115935	-142.850935379413	0.884000599570	0.972061260724	-0.209311000487	1.717042780569	4.270724642578	-1.773344094096	0.910462860894	0.977492196828	-0.204558385485	5.306032692037	23.508296355117	-11.290863560305	0.908059727087	0.976348936615	-0.204588397601	2.772642802387	36.995570239785	-25.028690054084	0.903150351924	0.976629454719	-0.205672396356	1.791195554302	5.361260260005	-1.215269647183	0.937181201627	0.935244552769	-0.252761876885	-52.171564518700	227.143550508921	-208.276186286899	0.899567494038	0.981129621485	-0.218048549062	3.735773704801	7.310300366146	-2.181482052479	0.921563102423	0.940201684038	-0.262863894381	0.661555417354	4.998897394976	0.585976333339	1.151947068335	0.525387749843	-0.287716729600	1.869403881051	14.907675919937	2.449146706792	1.152354331009	0.525021297362	-0.282700436266	1.281944518709	8.363901958547	0.912875326648	1.150650992050	0.525156260970	-0.295416768542
1.540000000000	-0.396812405649	1.805777620297	-1.730998941684	0.962072062574	0.875466154554	-0.249427552761	-1.259705255609	3.558773047544	-1.204041661537	1.025042269612	0.768061234131	-0.263570165971	-1.275553966787	1.722986930332	-0.408012223395	1.028080496553	0.747922130941	-0.259173429237	-1.158792162189	1.751163667687	0.103516663927	1.068599105417	0.642166667418	-0.322116045015	-0.970449897572	1.377474991909	-0.904297201488	0.982049874407	0.835380743537	-0.245624567568	-0.060771284625	0.886878001332	-1.716755547714	0.930670723989	0.907125106525	-0.245301110062	-15.093576641523	59.737368446998	0.538528068348	1.076155605549	0.529880321027	-0.250141926473	-14.466361443883	100.514847051327	13.483230985960	1.106725454106	0.134748168896	-0.298603906417	-32.497663000911	183.137532684468	-1.652340213069	1.106725454106	0.134748168896	-0.298603906417	-52.591504861650	166.885840627273	-22.148720694004	0.882499953098	0.935722821306	-0.232890628288	-125.045249362419	257.801435404667	-29.572705415293	0.893549571116	0.909586519281	-0.239561362622	-8.653534198933	8.262617752569	-3.535682759012	0.935023776763	0.863255125131	-0.259322777419	20.856891314964	44.677758309274	-6.237687881824	0.896175065447	0.966038390024	-0.203800117421	24.235685619457	121.897265171243	-63.069292112972	0.889415596753	0.970303422099	-0.206670482596	-12.236152780936	179.002395422204	-143.097210002425	0.883746177794	0.969136717414	-0.207652294209	1.493395557202	3.827750069066	-1.610240213196	0.910359656490	0.973963212402	-0.203095827538	5.422015786738	24.971391665866	-12.164995108398	0.907931863278	0.972872991847	-0.203111189665	2.659629790525	39.184119534723	-26.910025582219	0.903021004190	0.973266338556	-0.204152558758	1.894235935763	5.403940512763	-1.177245469951	0.935744644628	0.931383356163	-0.251725735652	-50.170966531375	210.106819951175	-196.562625370588	0.899435236380	0.977905914903	-0.216476280918	3.832802113610	7.251531866132	-2.116575550426	0.920155813672	0.936731798803	-0.261672164226	0.694680975765	5.715881849903	0.642050965383	1.143455714871	0.519054030937	-0.289911397817	1.975614546750	17.065043185778	2.717976478865	1.143859225563	0.518670826515	-0.284896053102	1.347828105619	9.560481424620	0.997866756017	1.142180992015	0.518835355635	-0.297615374926
